<?xml version="1.0" encoding="UTF-8"?>
<!DOCTYPE svg PUBLIC "-//W3C//DTD SVG 1.1//EN" "http://www.w3.org/Graphics/SVG/1.1/DTD/svg11.dtd">
<!-- Creator: CorelDRAW -->
<svg xmlns="http://www.w3.org/2000/svg" xml:space="preserve" width="1.17563in" height="0.90978in" version="1.1" style="shape-rendering:geometricPrecision; text-rendering:geometricPrecision; image-rendering:optimizeQuality; fill-rule:evenodd; clip-rule:evenodd"
viewBox="0 0 100.81 78.01"
 xmlns:xlink="http://www.w3.org/1999/xlink"
 xmlns:xodm="http://www.corel.com/coreldraw/odm/2003">
 <defs>
  <style type="text/css">
   <![CDATA[
    .fil0 {fill:#010101}
   ]]>
  </style>
 </defs>
 <g id="Layer_x0020_1">
  <metadata id="CorelCorpID_0Corel-Layer"/>
  <path class="fil0" d="M98.33 78.01c-1.87,-4.41 -9.52,-10.56 -10.74,-19.15 -0.97,-6.85 1.1,-6.53 4.25,-10.01 14.11,-15.56 10.92,-36.93 -5.05,-48.85 -1.27,21.08 -6.55,33.73 -26.66,46.39 -15.96,10.05 -37.63,14 -60.12,12.47l1.16 1.22c0.17,0.16 0.4,0.39 0.59,0.55 11.16,9.67 34.82,11.63 48.19,9.61 17.21,-2.6 7.76,-3.84 23.29,2.01 7.9,2.98 16.14,4.98 25.1,5.75z"/>
 </g>
</svg>
